# xmcd
#
# Track frame offsets: 
#        150
#        27762
#        47900
#        71787
#        93150
#        113737
#        133212
#        156050
#        176900
#        199125
#
# Disc length: 3020 seconds
#
# Revision: 8
# Processed by: cddbd v1.5PL3 Copyright (c) Steve Scherf et al.
# Submitted via: ExactAudioCopy v0.95a5
#
DISCID=8b0bca0a
DTITLE=林憶蓮 - Love, Sandy
DYEAR=1995
DGENRE=Pop
TTITLE0=傷痕
TTITLE1=這些那些
TTITLE2=聽說愛情回來過
TTITLE3=知難不退
TTITLE4=有所謂
TTITLE5=為你我受冷風吹
TTITLE6=愛不了多久
TTITLE7=不愛的理由
TTITLE8=影子情人
TTITLE9=傷痕〈演奏版〉
EXTD=YEAR: 1995
EXTT0=
EXTT1=
EXTT2=
EXTT3=
EXTT4=
EXTT5=
EXTT6=
EXTT7=
EXTT8=
EXTT9=
PLAYORDER=
